<svg version="1.1" id="Layer_1" xmlns="http://www.w3.org/2000/svg" xmlns:xlink="http://www.w3.org/1999/xlink" x="0px" y="0px"
	 width="100%" viewBox="0 0 512 512" enable-background="new 0 0 512 512" xml:space="preserve">
<path fill="#923D01" opacity="1.000000" stroke="none" 
	d="
M1.000000,290.000000 
	C1.000000,268.312439 1.000000,246.624878 1.411288,224.502075 
	C2.181300,223.557755 2.759969,223.090485 2.865945,222.533310 
	C4.617562,213.324493 5.915283,204.010483 8.083282,194.902985 
	C17.675398,154.607681 36.520237,118.904831 63.821751,87.976616 
	C79.723312,69.962723 97.721413,54.080563 118.230965,41.059040 
	C148.074860,22.111143 180.221802,9.687222 215.036453,3.901388 
	C218.100403,3.392191 221.015671,1.988321 224.000000,0.999999 
	C245.354233,1.000000 266.708466,1.000000 288.502441,1.414799 
	C292.225525,2.538451 295.483398,3.408817 298.796173,3.931014 
	C329.785309,8.815873 358.764923,19.310030 385.900055,34.987896 
	C412.567535,50.395588 435.512115,70.309021 455.135742,93.874329 
	C472.131622,114.284058 485.748749,136.896927 495.351562,161.784515 
	C502.909790,181.373306 508.742645,201.406052 511.085815,222.357361 
	C511.191010,223.297836 512.338196,224.121780 513.000000,225.000000 
	C513.000000,246.020889 513.000000,267.041779 512.585938,288.501282 
	C511.457153,292.233185 510.556549,295.498627 510.057739,298.824310 
	C506.659332,321.482330 499.893616,343.142578 490.411713,363.930237 
	C481.533325,383.394775 470.303070,401.420502 456.667206,417.987305 
	C443.760315,433.668579 429.426880,447.773438 413.452393,460.321930 
	C395.920837,474.093475 376.884735,485.261810 356.357758,493.774048 
	C335.745483,502.321716 314.399567,508.442200 292.143646,511.072510 
	C291.035339,511.203522 290.045166,512.334595 289.000000,513.000000 
	C267.979095,513.000000 246.958206,513.000000 225.498383,512.585938 
	C218.211197,510.799927 211.364868,509.418365 204.514389,508.057770 
	C160.078491,499.232269 121.045837,479.275879 87.251396,449.469147 
	C69.482391,433.796814 53.955460,415.930969 41.072273,395.768860 
	C22.030701,365.968842 9.680598,333.785004 3.901593,298.966125 
	C3.392914,295.901306 1.988417,292.985199 1.000000,290.000000 
M83.124382,430.952881 
	C95.324318,440.950409 107.524254,450.947937 120.191353,461.474213 
	C132.065445,468.077698 143.500977,475.708527 155.929138,481.014160 
	C170.167374,487.092560 185.286743,491.107025 200.689606,496.405853 
	C234.735794,504.562744 269.152771,505.851654 303.286804,498.527893 
	C392.460358,479.394867 453.960083,426.902954 487.687439,342.177399 
	C491.408722,332.829315 493.297760,322.751831 495.988037,313.005005 
	C495.988037,313.005005 496.011536,313.048767 496.448334,312.826324 
	C496.670319,312.554535 496.753754,312.245361 496.964233,311.141754 
	C501.127869,292.980652 503.406250,274.619049 502.957550,255.032211 
	C501.983490,243.320724 501.009399,231.609238 500.058777,219.052780 
	C499.972595,218.057251 499.965851,217.047363 499.788818,216.068253 
	C488.315399,152.613739 457.455841,100.623840 406.284302,61.425301 
	C356.142242,23.015354 299.045349,6.931227 236.053391,11.879086 
	C201.225571,14.614722 168.415466,24.361202 138.116669,41.627743 
	C72.259018,79.158394 31.339411,135.193619 15.547692,209.388702 
	C14.104746,216.168167 13.767518,223.182953 12.980863,230.900406 
	C12.314651,236.293335 10.991273,241.700729 11.109787,247.076370 
	C11.421387,261.210114 11.606799,275.416351 13.213147,289.436676 
	C16.167755,315.224609 23.548075,339.866241 35.320236,363.800354 
	C43.872200,377.582153 52.424160,391.363983 61.147243,405.781250 
	C68.348038,413.995026 75.548828,422.208832 83.124382,430.952881 
z"/>
<path fill="#000000" opacity="1.000000" stroke="none" 
	d="
M513.000000,224.531342 
	C512.338196,224.121780 511.191010,223.297836 511.085815,222.357361 
	C508.742645,201.406052 502.909790,181.373306 495.351562,161.784515 
	C485.748749,136.896927 472.131622,114.284058 455.135742,93.874329 
	C435.512115,70.309021 412.567535,50.395588 385.900055,34.987896 
	C358.764923,19.310030 329.785309,8.815873 298.796173,3.931014 
	C295.483398,3.408817 292.225525,2.538451 288.971069,1.414799 
	C363.593719,1.000000 438.187408,1.000000 513.000000,1.000000 
	C513.000000,75.354088 513.000000,149.708389 513.000000,224.531342 
z"/>
<path fill="#000000" opacity="1.000000" stroke="none" 
	d="
M1.000000,290.468658 
	C1.988417,292.985199 3.392914,295.901306 3.901593,298.966125 
	C9.680598,333.785004 22.030701,365.968842 41.072273,395.768860 
	C53.955460,415.930969 69.482391,433.796814 87.251396,449.469147 
	C121.045837,479.275879 160.078491,499.232269 204.514389,508.057770 
	C211.364868,509.418365 218.211197,510.799927 225.029724,512.585938 
	C150.406464,513.000000 75.812927,513.000000 1.000000,513.000000 
	C1.000000,438.979248 1.000000,364.958282 1.000000,290.468658 
z"/>
<path fill="#000000" opacity="1.000000" stroke="none" 
	d="
M289.468628,513.000000 
	C290.045166,512.334595 291.035339,511.203522 292.143646,511.072510 
	C314.399567,508.442200 335.745483,502.321716 356.357758,493.774048 
	C376.884735,485.261810 395.920837,474.093475 413.452393,460.321930 
	C429.426880,447.773438 443.760315,433.668579 456.667206,417.987305 
	C470.303070,401.420502 481.533325,383.394775 490.411713,363.930237 
	C499.893616,343.142578 506.659332,321.482330 510.057739,298.824310 
	C510.556549,295.498627 511.457153,292.233185 512.585938,288.969940 
	C513.000000,363.593719 513.000000,438.187408 513.000000,513.000000 
	C438.645905,513.000000 364.291626,513.000000 289.468628,513.000000 
z"/>
<path fill="#000000" opacity="1.000000" stroke="none" 
	d="
M223.531342,0.999999 
	C221.015671,1.988321 218.100403,3.392191 215.036453,3.901388 
	C180.221802,9.687222 148.074860,22.111143 118.230965,41.059040 
	C97.721413,54.080563 79.723312,69.962723 63.821751,87.976616 
	C36.520237,118.904831 17.675398,154.607681 8.083282,194.902985 
	C5.915283,204.010483 4.617562,213.324493 2.865945,222.533310 
	C2.759969,223.090485 2.181300,223.557755 1.411288,224.033417 
	C1.000000,149.739624 1.000000,75.479248 1.000000,1.000000 
	C75.020752,1.000000 149.041718,1.000000 223.531342,0.999999 
z"/>
<path fill="#FFCE33" opacity="1.000000" stroke="none" 
	d="
M496.036621,313.012695 
	C493.297760,322.751831 491.408722,332.829315 487.687439,342.177399 
	C453.960083,426.902954 392.460358,479.394867 303.286804,498.527893 
	C269.152771,505.851654 234.735794,504.562744 200.599365,495.979675 
	C201.617081,494.822327 202.712341,494.071014 203.834854,493.362946 
	C219.273956,483.624481 234.716812,473.891937 250.612244,464.099854 
	C258.215698,463.743164 265.389343,463.718781 272.511780,463.102356 
	C327.841583,458.313538 373.198792,434.237091 407.831543,391.030151 
	C417.939056,378.420349 425.285461,363.597351 434.244171,349.749298 
	C450.858582,339.723816 467.096893,329.689575 483.414520,319.785950 
	C487.490723,317.312012 491.822388,315.259094 496.036621,313.012695 
z"/>
<path fill="#FFE27F" opacity="1.000000" stroke="none" 
	d="
M35.178574,363.155640 
	C23.548075,339.866241 16.167755,315.224609 13.213147,289.436676 
	C11.606799,275.416351 11.421387,261.210114 11.109787,247.076370 
	C10.991273,241.700729 12.314651,236.293335 13.157097,230.191803 
	C14.048845,226.667252 14.764360,223.851303 15.840103,220.904160 
	C34.659100,209.401871 53.102135,198.005051 71.596176,186.691635 
	C73.958199,185.246719 76.586159,184.236511 79.076752,183.401031 
	C78.167252,186.098068 77.265099,188.416367 76.377663,190.740280 
	C67.626396,213.657196 63.209457,237.353928 63.483040,262.329041 
	C63.841961,269.177856 64.297272,275.608856 64.620796,282.411469 
	C64.389313,284.759766 64.023270,286.764954 64.231590,288.708649 
	C66.079659,305.951263 69.783417,322.771027 75.650940,339.051025 
	C73.413597,340.137970 71.485268,341.101044 69.647453,342.213593 
	C58.146580,349.175720 46.665920,356.171204 35.178574,363.155640 
z"/>
<path fill="#FEEDAE" opacity="1.000000" stroke="none" 
	d="
M15.479877,221.035370 
	C14.764360,223.851303 14.048845,226.667252 13.125081,229.785828 
	C13.767518,223.182953 14.104746,216.168167 15.547692,209.388702 
	C31.339411,135.193619 72.259018,79.158394 138.116669,41.627743 
	C168.415466,24.361202 201.225571,14.614722 236.053391,11.879086 
	C299.045349,6.931227 356.142242,23.015354 406.284302,61.425301 
	C457.455841,100.623840 488.315399,152.613739 499.788818,216.068253 
	C499.965851,217.047363 499.972595,218.057251 499.974274,219.791687 
	C499.632080,221.348236 499.374359,222.165863 499.031281,222.597137 
	C496.275635,211.791626 493.773285,201.325012 490.848938,190.977661 
	C489.748322,187.083359 487.669556,183.465515 486.029968,179.350494 
	C481.634857,169.282547 477.246521,159.585739 472.787415,149.556671 
	C463.479248,135.805893 454.241882,122.387367 444.827148,108.688377 
	C441.817535,105.150848 439.095734,101.789467 436.135437,98.653252 
	C413.027832,74.172264 386.199768,54.852928 355.182953,41.721516 
	C344.858154,37.350365 333.881317,34.519360 322.959900,30.698282 
	C320.997894,29.810209 319.311218,29.082745 317.554230,28.625416 
	C299.905884,24.031773 281.928650,21.534864 263.726715,21.150970 
	C208.814804,19.992832 158.576416,34.864777 114.042053,67.068977 
	C61.111683,105.344589 28.123911,156.775665 15.479877,221.035370 
z"/>
<path fill="#FFE27F" opacity="1.000000" stroke="none" 
	d="
M496.012329,313.008850 
	C491.822388,315.259094 487.490723,317.312012 483.414520,319.785950 
	C467.096893,329.689575 450.858582,339.723816 434.338379,349.402405 
	C435.463593,345.528259 436.909760,341.986206 438.207153,338.390503 
	C443.926483,322.539948 448.448029,306.419922 449.018982,289.465210 
	C449.048981,289.503815 448.975250,289.568024 448.954407,289.343842 
	C448.892975,288.669342 448.852386,288.219025 448.762024,287.329346 
	C449.255798,278.891144 449.799347,270.892273 450.437683,262.462677 
	C450.481384,259.680450 450.430298,257.328979 450.575531,254.755035 
	C450.871368,254.362213 450.970886,254.191833 451.406738,253.936829 
	C467.478119,244.207703 483.213196,234.563187 499.045746,225.317596 
	C499.424042,227.333176 499.784302,228.940643 499.972473,230.568024 
	C500.950562,239.027298 501.884796,247.491669 502.834290,255.954254 
	C503.406250,274.619049 501.127869,292.980652 496.639587,311.661865 
	C496.069397,312.420380 495.968262,312.709320 496.011536,313.048767 
	C496.011536,313.048767 495.988037,313.005005 496.012329,313.008850 
z"/>
<path fill="#FFE27E" opacity="1.000000" stroke="none" 
	d="
M250.158737,464.157928 
	C234.716812,473.891937 219.273956,483.624481 203.834854,493.362946 
	C202.712341,494.071014 201.617081,494.822327 200.266220,495.785828 
	C185.286743,491.107025 170.167374,487.092560 155.929138,481.014160 
	C143.500977,475.708527 132.065445,468.077698 120.186325,460.947266 
	C130.420593,453.932800 140.688461,447.489563 150.876495,440.922485 
	C153.063721,439.512604 154.962097,437.654633 157.300537,436.154053 
	C163.591370,439.542236 169.447510,443.047577 175.581696,445.969116 
	C199.160538,457.199097 224.242645,462.426666 250.158737,464.157928 
z"/>
<path fill="#FFCE33" opacity="1.000000" stroke="none" 
	d="
M35.249405,363.477997 
	C46.665920,356.171204 58.146580,349.175720 69.647453,342.213593 
	C71.485268,341.101044 73.413597,340.137970 75.796608,339.380463 
	C82.937088,352.456146 89.599884,365.247437 96.200584,378.070740 
	C97.002785,379.629181 97.470650,381.359711 97.742905,383.073547 
	C85.253609,390.472992 73.114868,397.809387 60.976128,405.145813 
	C52.424160,391.363983 43.872200,377.582153 35.249405,363.477997 
z"/>
<path fill="#FFCE34" opacity="1.000000" stroke="none" 
	d="
M156.993530,436.003052 
	C154.962097,437.654633 153.063721,439.512604 150.876495,440.922485 
	C140.688461,447.489563 130.420593,453.932800 119.952744,460.682892 
	C107.524254,450.947937 95.324318,440.950409 83.273376,430.524963 
	C95.274956,422.612030 107.127533,415.126984 119.345078,407.693176 
	C121.174515,408.793182 122.666862,409.805420 124.099014,410.896637 
	C135.070450,419.256775 146.030167,427.632294 156.993530,436.003052 
z"/>
<path fill="#FFE27E" opacity="1.000000" stroke="none" 
	d="
M118.980103,407.641968 
	C107.127533,415.126984 95.274956,422.612030 83.085999,430.259827 
	C75.548828,422.208832 68.348038,413.995026 61.061691,405.463531 
	C73.114868,397.809387 85.253609,390.472992 98.062820,383.158142 
	C105.280525,390.711395 111.837875,398.234375 118.350136,405.796143 
	C118.743790,406.253235 118.778412,407.019562 118.980103,407.641968 
z"/>
<path fill="#FAE399" opacity="1.000000" stroke="none" 
	d="
M502.895935,255.493225 
	C501.884796,247.491669 500.950562,239.027298 499.972473,230.568024 
	C499.784302,228.940643 499.424042,227.333176 499.066772,224.994476 
	C499.032440,223.842804 499.074585,223.413147 499.116699,222.983490 
	C499.374359,222.165863 499.632080,221.348236 499.962524,220.214172 
	C501.009399,231.609238 501.983490,243.320724 502.895935,255.493225 
z"/>
<path fill="#FFCE33" opacity="1.000000" stroke="none" 
	d="
M496.229919,312.937561 
	C495.968262,312.709320 496.069397,312.420380 496.506775,312.040344 
	C496.753754,312.245361 496.670319,312.554535 496.229919,312.937561 
z"/>
<path fill="#FFEEAE" opacity="1.000000" stroke="none" 
	d="
M119.345085,407.693176 
	C118.778412,407.019562 118.743790,406.253235 118.350136,405.796143 
	C111.837875,398.234375 105.280525,390.711395 98.413376,383.095093 
	C97.470650,381.359711 97.002785,379.629181 96.200584,378.070740 
	C89.599884,365.247437 82.937088,352.456146 76.147461,339.325684 
	C69.783417,322.771027 66.079659,305.951263 64.231590,288.708649 
	C64.023270,286.764954 64.389313,284.759766 64.698578,282.831177 
	C65.560425,287.153595 66.105034,291.447571 66.880753,295.699341 
	C85.646019,398.553619 184.922836,471.415985 292.817810,450.240601 
	C369.843689,435.123535 419.820160,387.540894 443.204163,312.462524 
	C445.554810,304.915436 447.080475,297.111389 448.989014,289.426605 
	C448.448029,306.419922 443.926483,322.539948 438.207153,338.390503 
	C436.909760,341.986206 435.463593,345.528259 433.991638,349.441895 
	C425.285461,363.597351 417.939056,378.420349 407.831543,391.030151 
	C373.198792,434.237091 327.841583,458.313538 272.511780,463.102356 
	C265.389343,463.718781 258.215698,463.743164 250.612244,464.099854 
	C224.242645,462.426666 199.160538,457.199097 175.581696,445.969116 
	C169.447510,443.047577 163.591370,439.542236 157.300522,436.154053 
	C146.030167,427.632294 135.070450,419.256775 124.099014,410.896637 
	C122.666862,409.805420 121.174515,408.793182 119.345085,407.693176 
z"/>
<path fill="#F28A00" opacity="1.000000" stroke="none" 
	d="
M449.018982,289.465210 
	C447.080475,297.111389 445.554810,304.915436 443.204163,312.462524 
	C419.820160,387.540894 369.843689,435.123535 292.817810,450.240601 
	C184.922836,471.415985 85.646019,398.553619 66.880753,295.699341 
	C66.105034,291.447571 65.560425,287.153595 64.830368,282.459595 
	C64.297272,275.608856 63.841961,269.177856 63.695679,262.062439 
	C64.330772,260.282074 64.816528,259.206604 64.959991,258.087219 
	C71.502686,207.036392 94.186890,164.599365 133.865662,131.847397 
	C177.734283,95.637024 228.552353,81.691849 284.655457,89.444008 
	C369.087128,101.110519 435.184875,167.354630 448.145599,251.766449 
	C448.718811,255.499878 449.603363,259.185516 450.342896,262.893402 
	C449.799347,270.892273 449.255798,278.891144 448.692017,287.789734 
	C448.772949,288.982330 448.874084,289.275177 448.975250,289.568024 
	C448.975250,289.568024 449.048981,289.503815 449.018982,289.465210 
M234.638168,395.039215 
	C234.587662,393.372284 234.537155,391.705322 234.440308,389.218140 
	C234.480118,381.091431 234.519943,372.964752 235.412827,364.896118 
	C241.671890,364.939697 247.930969,364.983276 254.463394,365.772675 
	C254.631134,369.154297 254.798874,372.535919 254.666138,376.703827 
	C254.541840,383.102295 254.417526,389.500793 254.240326,396.804657 
	C254.223663,397.633331 254.190460,398.462097 254.192947,399.290710 
	C254.212479,405.837372 254.338684,405.967712 260.856934,406.002808 
	C263.675140,406.017975 266.493500,406.006683 269.311768,406.006256 
	C279.309113,406.004700 279.309113,406.004517 279.327728,395.213226 
	C279.483978,384.896851 279.640198,374.580505 280.749573,364.241119 
	C297.849487,363.563812 314.707214,361.438324 329.901947,352.921936 
	C346.115662,343.834412 353.867706,329.521027 353.838196,310.414948 
	C354.114960,306.292725 354.409576,302.171631 354.665070,298.048096 
	C355.361481,286.807953 353.739258,276.151001 346.491821,266.284790 
	C340.614380,261.916718 334.736938,257.548645 329.397919,252.739334 
	C337.625824,244.665131 340.784882,234.758865 339.876282,222.566116 
	C339.956543,219.073059 340.124817,215.579391 340.101013,212.087036 
	C340.020203,200.220627 336.306793,189.891098 326.735596,181.376938 
	C321.887299,178.514221 317.348175,174.701736 312.121826,173.000229 
	C303.160797,170.082855 293.834381,168.115082 284.530731,166.501984 
	C280.402740,165.786240 279.384644,164.267166 279.461700,160.452194 
	C279.670166,150.130692 279.645752,139.801620 279.491760,129.478867 
	C279.469452,127.984215 278.279907,125.248352 277.540985,125.217308 
	C269.982391,124.899765 262.405334,125.022873 254.308914,125.022873 
	C254.308914,135.940674 254.345139,146.065781 254.298538,156.190521 
	C254.253799,165.910965 255.158539,164.794403 245.863892,164.958542 
	C243.865891,164.993835 241.843246,164.792755 239.873642,165.036896 
	C235.612808,165.565079 234.433105,163.673904 234.527817,159.632080 
	C234.761841,149.644867 234.514267,139.646835 234.709839,129.658035 
	C234.782410,125.952057 233.503479,124.648544 229.789963,124.834259 
	C224.473923,125.100113 219.126724,125.080887 213.808212,124.841522 
	C210.196030,124.678947 209.232788,126.209267 209.285706,129.540756 
	C209.439102,139.197815 209.378998,148.858444 209.381607,158.517670 
	C209.383621,165.970245 209.369492,165.985992 202.161316,165.993301 
	C189.670792,166.005966 177.180191,165.984253 164.689713,166.011581 
	C162.932709,166.015427 161.176147,166.214676 159.176392,166.338516 
	C159.176392,175.527313 159.176392,184.163177 159.082001,193.720154 
	C158.860077,202.877792 158.860077,202.877151 168.093033,202.850296 
	C169.740494,202.845505 171.395462,202.950287 173.034149,202.830017 
	C180.337555,202.293991 186.775055,203.887100 191.634583,210.974289 
	C191.655838,212.959564 191.684189,214.944809 191.697205,216.930130 
	C191.804581,233.307465 191.909119,249.684799 191.949280,266.986511 
	C191.933273,282.310272 191.983841,297.634521 191.872406,312.957581 
	C191.818771,320.332031 189.032471,323.611053 182.079330,324.260345 
	C177.965378,324.644531 173.768311,324.535645 169.638443,324.236694 
	C165.780075,323.957367 163.674469,325.179413 163.207031,329.207764 
	C162.670319,333.833191 161.823853,338.422607 160.896469,343.796570 
	C160.325714,347.271332 159.754944,350.746063 159.127533,355.088776 
	C158.827148,364.136627 158.827164,364.152466 167.911865,364.139832 
	C181.733749,364.120605 195.555588,364.076813 209.598618,364.821991 
	C209.721375,375.188354 209.844116,385.554688 209.673416,396.668091 
	C209.536255,397.481232 209.319031,398.290009 209.274689,399.108185 
	C208.935867,405.357788 209.499817,405.962616 215.660645,406.002533 
	C218.637390,406.021820 221.614807,406.040314 224.591156,406.001068 
	C235.003387,405.863800 234.898148,407.636078 234.638168,395.039215 
z"/>
<path fill="#FFCE33" opacity="1.000000" stroke="none" 
	d="
M15.840105,220.904160 
	C28.123911,156.775665 61.111683,105.344589 114.042053,67.068977 
	C158.576416,34.864777 208.814804,19.992832 263.726715,21.150970 
	C281.928650,21.534864 299.905884,24.031773 317.554230,28.625416 
	C319.311218,29.082745 320.997894,29.810209 322.612762,30.804323 
	C319.096313,33.226437 315.644104,35.192257 312.279205,37.297573 
	C296.567474,47.127872 280.879822,56.996666 264.706177,66.906860 
	C255.421341,67.286621 246.572540,67.176659 237.813522,68.010185 
	C197.492538,71.847221 162.013107,87.278427 131.169754,113.424606 
	C108.828323,132.363647 92.084709,155.528870 79.686844,182.202393 
	C79.331024,182.588165 79.148979,182.826370 78.994949,183.033875 
	C79.010529,182.993652 79.090919,183.024918 79.090919,183.024918 
	C76.586159,184.236511 73.958199,185.246719 71.596176,186.691635 
	C53.102135,198.005051 34.659100,209.401871 15.840105,220.904160 
z"/>
<path fill="#DC5A01" opacity="1.000000" stroke="none" 
	d="
M79.848198,182.045334 
	C92.084709,155.528870 108.828323,132.363647 131.169754,113.424606 
	C162.013107,87.278427 197.492538,71.847221 237.813522,68.010185 
	C246.572540,67.176659 255.421341,67.286621 265.133881,66.967819 
	C294.305206,68.576401 321.097748,75.552902 346.278229,88.655937 
	C368.411011,100.173088 387.394104,115.613205 404.080872,134.470047 
	C413.185852,148.222855 422.146484,161.683197 431.164978,175.483154 
	C435.200745,186.169693 439.178589,196.516602 443.185547,207.249573 
	C447.380066,222.759720 450.107788,238.101074 450.176697,254.036346 
	C450.164734,254.499878 450.238953,254.748535 450.379211,254.977478 
	C450.430298,257.328979 450.481384,259.680450 450.437683,262.462677 
	C449.603363,259.185516 448.718811,255.499878 448.145599,251.766449 
	C435.184875,167.354630 369.087128,101.110519 284.655457,89.444008 
	C228.552353,81.691849 177.734283,95.637024 133.865662,131.847397 
	C94.186890,164.599365 71.502686,207.036392 64.959991,258.087219 
	C64.816528,259.206604 64.330772,260.282074 63.792065,261.644653 
	C63.209457,237.353928 67.626396,213.657196 76.377663,190.740280 
	C77.265099,188.416367 78.167252,186.098068 79.076752,183.401031 
	C79.090919,183.024918 79.010529,182.993652 79.232483,182.959839 
	C79.736969,182.700104 79.868225,182.406540 79.848198,182.045334 
z"/>
<path fill="#FFE27F" opacity="1.000000" stroke="none" 
	d="
M403.936554,134.177582 
	C387.394104,115.613205 368.411011,100.173088 346.278229,88.655937 
	C321.097748,75.552902 294.305206,68.576401 265.611267,66.912659 
	C280.879822,56.996666 296.567474,47.127872 312.279205,37.297573 
	C315.644104,35.192257 319.096313,33.226437 322.855408,31.090307 
	C333.881317,34.519360 344.858154,37.350365 355.182953,41.721516 
	C386.199768,54.852928 413.027832,74.172264 436.135437,98.653252 
	C439.095734,101.789467 441.817535,105.150848 444.568359,108.906464 
	C430.970154,117.662529 417.453369,125.920059 403.936554,134.177582 
z"/>
<path fill="#FFCE33" opacity="1.000000" stroke="none" 
	d="
M450.196838,253.841156 
	C450.107788,238.101074 447.380066,222.759720 443.481934,207.107498 
	C449.948853,202.754227 456.192688,198.998596 462.336945,195.086609 
	C470.278473,190.030304 478.140472,184.849075 486.036743,179.721634 
	C487.669556,183.465515 489.748322,187.083359 490.848938,190.977661 
	C493.773285,201.325012 496.275635,211.791626 499.031311,222.597137 
	C499.074585,223.413147 499.032440,223.842804 498.969299,224.595566 
	C483.213196,234.563187 467.478119,244.207703 451.186768,253.899353 
	C450.630493,253.946503 450.196838,253.841156 450.196838,253.841156 
z"/>
<path fill="#FFCE34" opacity="1.000000" stroke="none" 
	d="
M404.080872,134.470062 
	C417.453369,125.920059 430.970154,117.662529 444.745728,109.186920 
	C454.241882,122.387367 463.479248,135.805893 472.469116,149.681534 
	C458.516785,158.473618 444.811951,166.808594 431.107086,175.143555 
	C422.146484,161.683197 413.185852,148.222855 404.080872,134.470062 
z"/>
<path fill="#FFE27E" opacity="1.000000" stroke="none" 
	d="
M431.164978,175.483170 
	C444.811951,166.808594 458.516785,158.473618 472.539917,150.013779 
	C477.246521,159.585739 481.634857,169.282547 486.029968,179.350494 
	C478.140472,184.849075 470.278473,190.030304 462.336945,195.086609 
	C456.192688,198.998596 449.948853,202.754227 443.452881,206.721436 
	C439.178589,196.516602 435.200745,186.169693 431.164978,175.483170 
z"/>
<path fill="#FFEEAE" opacity="1.000000" stroke="none" 
	d="
M448.954407,289.343842 
	C448.874084,289.275177 448.772949,288.982330 448.741791,288.229065 
	C448.852386,288.219025 448.892975,288.669342 448.954407,289.343842 
z"/>
<path fill="#F28A00" opacity="1.000000" stroke="none" 
	d="
M450.176697,254.036346 
	C450.196838,253.841156 450.630493,253.946503 450.850464,253.983978 
	C450.970886,254.191833 450.871368,254.362213 450.575562,254.755035 
	C450.238953,254.748535 450.164734,254.499878 450.176697,254.036346 
z"/>
<path fill="#FFE17E" opacity="1.000000" stroke="none" 
	d="
M159.176392,192.799042 
	C159.176392,184.163177 159.176392,175.527313 159.176392,166.338516 
	C161.176147,166.214676 162.932709,166.015427 164.689713,166.011581 
	C177.180191,165.984253 189.670792,166.005966 202.161316,165.993301 
	C209.369492,165.985992 209.383621,165.970245 209.381607,158.517670 
	C209.378998,148.858444 209.439102,139.197815 209.285706,129.540756 
	C209.232788,126.209267 210.196030,124.678947 213.808212,124.841522 
	C219.126724,125.080887 224.473923,125.100113 229.789963,124.834259 
	C233.503479,124.648544 234.782410,125.952057 234.709839,129.658035 
	C234.514267,139.646835 234.761841,149.644867 234.527817,159.632080 
	C234.433105,163.673904 235.612808,165.565079 239.873642,165.036896 
	C241.843246,164.792755 243.865891,164.993835 245.863892,164.958542 
	C255.158539,164.794403 254.253799,165.910965 254.298538,156.190521 
	C254.345139,146.065781 254.308914,135.940674 254.308914,125.022873 
	C262.405334,125.022873 269.982391,124.899765 277.540985,125.217308 
	C278.279907,125.248352 279.469452,127.984215 279.491760,129.478867 
	C279.645752,139.801620 279.670166,150.130692 279.461700,160.452194 
	C279.384644,164.267166 280.402740,165.786240 284.530731,166.501984 
	C293.834381,168.115082 303.160797,170.082855 312.121826,173.000229 
	C317.348175,174.701736 321.887299,178.514221 326.681580,181.897446 
	C324.966003,183.523163 323.321350,184.654861 321.640076,185.729279 
	C310.985413,192.538132 300.322632,199.334320 289.391876,205.977890 
	C273.351044,191.392639 254.092957,194.931091 235.241791,194.515518 
	C235.241791,198.525726 235.241791,201.655579 235.173553,205.263275 
	C235.017471,217.124023 234.929657,228.506927 234.534164,240.036682 
	C220.155838,248.809753 206.085175,257.435944 192.014511,266.062134 
	C191.909119,249.684799 191.804581,233.307465 191.697205,216.930130 
	C191.684189,214.944809 191.655838,212.959564 191.582611,210.088959 
	C191.704483,197.380341 187.824539,193.161484 176.118607,192.792343 
	C170.476883,192.614426 164.824142,192.785828 159.176392,192.799042 
z"/>
<path fill="#FFCE33" opacity="1.000000" stroke="none" 
	d="
M191.981903,266.524323 
	C206.085175,257.435944 220.155838,248.809753 234.596313,240.449005 
	C235.081772,244.004211 237.404877,244.230148 239.862335,244.202744 
	C246.660416,244.126938 253.577347,244.780472 260.224670,243.732986 
	C267.817383,242.536530 275.434509,240.464401 282.545990,237.560486 
	C288.579285,235.096832 292.454285,229.898895 293.045349,222.542923 
	C294.250336,216.345871 292.371552,211.150131 289.662537,206.134674 
	C300.322632,199.334320 310.985413,192.538132 321.640076,185.729279 
	C323.321350,184.654861 324.966003,183.523163 326.873840,182.174759 
	C336.306793,189.891098 340.020203,200.220627 340.101013,212.087036 
	C340.124817,215.579391 339.956543,219.073059 339.722595,223.330276 
	C337.765686,228.344925 335.962494,232.595413 333.999817,236.828293 
	C333.503235,236.752975 333.224854,236.860077 333.068909,237.052948 
	C333.132660,236.973892 333.292389,237.099350 332.929382,237.140884 
	C317.267975,246.523605 301.946411,255.827194 286.690674,265.237457 
	C283.613739,267.135406 280.786194,269.437683 277.487122,271.489990 
	C263.320160,268.901337 249.450424,268.836090 235.199478,269.879272 
	C235.199478,273.546722 235.199478,276.679962 235.149841,280.290649 
	C235.038391,286.496582 234.976608,292.225098 234.572113,298.026154 
	C232.488892,299.064880 230.705780,299.962189 229.014282,301.007690 
	C206.372681,315.002258 183.743896,329.017548 161.111923,343.027679 
	C161.823853,338.422607 162.670319,333.833191 163.207031,329.207764 
	C163.674469,325.179413 165.780075,323.957367 169.638443,324.236694 
	C173.768311,324.535645 177.965378,324.644531 182.079330,324.260345 
	C189.032471,323.611053 191.818771,320.332031 191.872406,312.957581 
	C191.983841,297.634521 191.933273,282.310272 191.981903,266.524323 
z"/>
<path fill="#FFCE33" opacity="1.000000" stroke="none" 
	d="
M234.559769,364.838043 
	C234.519943,372.964752 234.480118,381.091431 234.134674,389.666748 
	C230.588013,392.012573 227.347000,393.909851 223.637817,395.864075 
	C218.768753,395.921051 214.367813,395.921051 209.966888,395.921051 
	C209.844116,385.554688 209.721375,375.188354 209.509247,363.983215 
	C208.685730,360.080475 211.327362,356.088379 207.153473,353.789734 
	C211.741379,350.779175 216.100204,348.028198 220.439514,345.246857 
	C231.063736,338.437317 241.679001,331.613800 252.714417,324.775787 
	C264.691833,322.914551 276.434967,321.807831 287.755341,318.998016 
	C296.679199,316.783051 303.134247,310.672699 304.847382,300.414154 
	C304.896851,297.414246 304.881134,294.844727 305.221436,292.174713 
	C319.302673,283.668579 333.027954,275.262909 346.753235,266.857239 
	C353.739258,276.151001 355.361481,286.807953 354.665070,298.048096 
	C354.409576,302.171631 354.114960,306.292725 353.604187,310.879364 
	C352.669464,313.232208 351.968750,315.120605 350.925171,317.124481 
	C344.323486,321.024506 338.016846,324.732635 331.815826,328.609619 
	C318.849121,336.716583 305.938141,344.912689 292.613098,353.210083 
	C290.432770,353.550781 288.648438,353.826721 286.853729,353.943542 
	C279.488007,354.423004 279.486847,354.405182 278.884399,361.827454 
	C270.678986,366.614746 262.822815,371.266144 254.966614,375.917542 
	C254.798874,372.535919 254.631134,369.154297 254.381439,364.940979 
	C254.479645,352.832611 254.592499,355.321686 245.468704,354.981598 
	C244.972702,354.963074 244.475601,354.974792 243.979004,354.972595 
	C234.101685,354.928589 234.101685,354.928589 234.559769,364.838043 
z"/>
<path fill="#FFE27E" opacity="1.000000" stroke="none" 
	d="
M252.297852,324.795898 
	C241.679001,331.613800 231.063736,338.437317 220.439514,345.246857 
	C216.100204,348.028198 211.741379,350.779175 206.703430,353.892090 
	C190.405029,354.233795 174.794601,354.227295 159.184174,354.220825 
	C159.754944,350.746063 160.325714,347.271332 161.004196,343.412109 
	C183.743896,329.017548 206.372681,315.002258 229.014282,301.007690 
	C230.705780,299.962189 232.488892,299.064880 234.609833,298.501038 
	C234.990234,307.200317 234.990234,315.497253 234.990234,324.795898 
	C241.098038,324.795898 246.697952,324.795898 252.297852,324.795898 
z"/>
<path fill="#FFE17D" opacity="1.000000" stroke="none" 
	d="
M346.622528,266.571014 
	C333.027954,275.262909 319.302673,283.668579 305.035645,291.848450 
	C303.075592,285.656982 299.907898,280.684723 294.479858,277.962311 
	C289.192932,275.310699 283.409241,273.649536 277.843658,271.553528 
	C280.786194,269.437683 283.613739,267.135406 286.690674,265.237457 
	C301.946411,255.827194 317.267975,246.523605 332.988586,237.504333 
	C329.127045,242.112442 324.843262,246.398666 320.504852,250.739548 
	C323.218903,251.532516 326.039185,252.356537 328.859497,253.180557 
	C334.736938,257.548645 340.614380,261.916718 346.622528,266.571014 
z"/>
<path fill="#BE4F01" opacity="1.000000" stroke="none" 
	d="
M279.233704,361.691528 
	C279.486847,354.405182 279.488007,354.423004 286.853729,353.943542 
	C288.648438,353.826721 290.432770,353.550781 293.048615,353.237030 
	C306.735107,351.934479 319.182037,349.156464 330.490479,342.677612 
	C340.673645,336.843475 348.009644,328.533142 351.268066,317.009033 
	C351.968750,315.120605 352.669464,313.232208 353.657074,311.167969 
	C353.867706,329.521027 346.115662,343.834412 329.901947,352.921936 
	C314.707214,361.438324 297.849487,363.563812 280.190765,363.932190 
	C279.499207,362.979370 279.366455,362.335449 279.233704,361.691528 
z"/>
<path fill="#FFE17D" opacity="1.000000" stroke="none" 
	d="
M278.884430,361.827454 
	C279.366455,362.335449 279.499207,362.979370 279.714203,363.943726 
	C279.640198,374.580505 279.483978,384.896851 278.745178,395.606873 
	C270.206146,395.966766 262.249695,395.933014 254.293213,395.899261 
	C254.417526,389.500793 254.541840,383.102295 254.816376,376.310669 
	C262.822815,371.266144 270.678986,366.614746 278.884430,361.827454 
z"/>
<path fill="#BC4C00" opacity="1.000000" stroke="none" 
	d="
M159.155853,354.654785 
	C174.794601,354.227295 190.405029,354.233795 206.465500,354.137878 
	C211.327362,356.088379 208.685730,360.080475 209.398682,363.593964 
	C195.555588,364.076813 181.733749,364.120605 167.911865,364.139832 
	C158.827164,364.152466 158.827148,364.136627 159.155853,354.654785 
z"/>
<path fill="#BE4F01" opacity="1.000000" stroke="none" 
	d="
M159.129196,193.259598 
	C164.824142,192.785828 170.476883,192.614426 176.118607,192.792343 
	C187.824539,193.161484 191.704483,197.380341 191.475586,209.636536 
	C186.775055,203.887100 180.337555,202.293991 173.034149,202.830017 
	C171.395462,202.950287 169.740494,202.845505 168.093033,202.850296 
	C158.860077,202.877151 158.860077,202.877792 159.129196,193.259598 
z"/>
<path fill="#BD4D00" opacity="1.000000" stroke="none" 
	d="
M209.820160,396.294556 
	C214.367813,395.921051 218.768753,395.921051 224.081680,395.928131 
	C228.223923,395.912964 231.454178,395.890717 234.684418,395.868500 
	C234.898148,407.636078 235.003387,405.863800 224.591156,406.001068 
	C221.614807,406.040314 218.637390,406.021820 215.660645,406.002533 
	C209.499817,405.962616 208.935867,405.357788 209.274689,399.108185 
	C209.319031,398.290009 209.536255,397.481232 209.820160,396.294556 
z"/>
<path fill="#BD4D00" opacity="1.000000" stroke="none" 
	d="
M254.266785,396.351959 
	C262.249695,395.933014 270.206146,395.966766 278.644531,396.000732 
	C279.309113,406.004517 279.309113,406.004700 269.311768,406.006256 
	C266.493500,406.006683 263.675140,406.017975 260.856934,406.002808 
	C254.338684,405.967712 254.212479,405.837372 254.192947,399.290710 
	C254.190460,398.462097 254.223663,397.633331 254.266785,396.351959 
z"/>
<path fill="#BC4C00" opacity="1.000000" stroke="none" 
	d="
M234.986298,364.867065 
	C234.101685,354.928589 234.101685,354.928589 243.979004,354.972595 
	C244.475601,354.974792 244.972702,354.963074 245.468704,354.981598 
	C254.592499,355.321686 254.479645,352.832611 254.244751,364.568085 
	C247.930969,364.983276 241.671890,364.939697 234.986298,364.867065 
z"/>
<path fill="#BF5203" opacity="1.000000" stroke="none" 
	d="
M329.128723,252.959946 
	C326.039185,252.356537 323.218903,251.532516 320.504852,250.739548 
	C324.843262,246.398666 329.127045,242.112442 333.351593,237.462799 
	C333.292389,237.099350 333.132660,236.973892 333.397919,237.142868 
	C333.828583,237.156525 333.993958,237.001221 334.159302,236.845901 
	C335.962494,232.595413 337.765686,228.344925 339.781097,223.759552 
	C340.784882,234.758865 337.625824,244.665131 329.128723,252.959946 
z"/>
<path fill="#FFE07A" opacity="1.000000" stroke="none" 
	d="
M234.661285,395.453857 
	C231.454178,395.890717 228.223923,395.912964 224.549835,395.871155 
	C227.347000,393.909851 230.588013,392.012573 234.157837,390.076843 
	C234.537155,391.705322 234.587662,393.372284 234.661285,395.453857 
z"/>
<path fill="#FFE27F" opacity="1.000000" stroke="none" 
	d="
M79.686844,182.202393 
	C79.868225,182.406540 79.736969,182.700104 79.216904,183.000046 
	C79.148979,182.826370 79.331024,182.588165 79.686844,182.202393 
z"/>
<path fill="#F28A00" opacity="1.000000" stroke="none" 
	d="
M292.942047,222.897049 
	C292.454285,229.898895 288.579285,235.096832 282.545990,237.560486 
	C275.434509,240.464401 267.817383,242.536530 260.224670,243.732986 
	C253.577347,244.780472 246.660416,244.126938 239.862335,244.202744 
	C237.404877,244.230148 235.081772,244.004211 234.903961,240.302155 
	C234.929657,228.506927 235.017471,217.124023 235.587280,205.250214 
	C245.028198,204.855392 254.048340,204.327011 262.931366,205.197647 
	C275.445770,206.424179 287.459595,209.357773 292.942047,222.897049 
z"/>
<path fill="#BE5002" opacity="1.000000" stroke="none" 
	d="
M293.045349,222.542923 
	C287.459595,209.357773 275.445770,206.424179 262.931366,205.197647 
	C254.048340,204.327011 245.028198,204.855392 235.655518,204.772369 
	C235.241791,201.655579 235.241791,198.525726 235.241791,194.515518 
	C254.092957,194.931091 273.351044,191.392639 289.391876,205.977890 
	C292.371552,211.150131 294.250336,216.345871 293.045349,222.542923 
z"/>
<path fill="#F28A00" opacity="1.000000" stroke="none" 
	d="
M252.714432,324.775787 
	C246.697952,324.795898 241.098038,324.795898 234.990234,324.795898 
	C234.990234,315.497253 234.990234,307.200317 234.952515,298.428467 
	C234.976608,292.225098 235.038391,286.496582 235.602859,280.293274 
	C250.802170,280.586548 265.591156,280.595673 280.165436,282.369202 
	C291.288422,283.722717 300.497986,289.467224 304.782196,300.844513 
	C303.134247,310.672699 296.679199,316.783051 287.755341,318.998016 
	C276.434967,321.807831 264.691833,322.914551 252.714432,324.775787 
z"/>
<path fill="#BE5001" opacity="1.000000" stroke="none" 
	d="
M304.847382,300.414154 
	C300.497986,289.467224 291.288422,283.722717 280.165436,282.369202 
	C265.591156,280.595673 250.802170,280.586548 235.652496,279.815857 
	C235.199478,276.679962 235.199478,273.546722 235.199478,269.879272 
	C249.450424,268.836090 263.320160,268.901337 277.487122,271.489990 
	C283.409241,273.649536 289.192932,275.310699 294.479858,277.962311 
	C299.907898,280.684723 303.075592,285.656982 304.679657,291.948914 
	C304.881134,294.844727 304.896851,297.414246 304.847382,300.414154 
z"/>
<path fill="#FFE17D" opacity="1.000000" stroke="none" 
	d="
M333.999817,236.828293 
	C333.993958,237.001221 333.828583,237.156525 333.334167,237.221924 
	C333.224854,236.860077 333.503235,236.752975 333.999817,236.828293 
z"/>
<path fill="#FEE07C" opacity="1.000000" stroke="none" 
	d="
M350.925171,317.124481 
	C348.009644,328.533142 340.673645,336.843475 330.490479,342.677612 
	C319.182037,349.156464 306.735107,351.934479 293.439819,353.099121 
	C305.938141,344.912689 318.849121,336.716583 331.815826,328.609619 
	C338.016846,324.732635 344.323486,321.024506 350.925171,317.124481 
z"/>
</svg>